<?xml version="1.0" standalone="no"?>
<!DOCTYPE svg PUBLIC "-//W3C//DTD SVG 20010904//EN"
 "http://www.w3.org/TR/2001/REC-SVG-20010904/DTD/svg10.dtd">
<svg version="1.0" xmlns="http://www.w3.org/2000/svg"
 width="616.000000pt" height="164.000000pt" viewBox="0 0 616.000000 164.000000"
 preserveAspectRatio="xMidYMid meet">

<g transform="translate(0.000000,164.000000) scale(0.100000,-0.100000)"
fill="#000000" stroke="none">
<path d="M0 820 l0 -820 3080 0 3080 0 0 820 0 820 -3080 0 -3080 0 0 -820z
m6064 715 c14 -22 16 -96 16 -723 l0 -700 -25 -16 c-22 -15 -276 -16 -2984
-16 l-2960 0 -15 22 c-14 20 -16 105 -16 722 0 636 2 701 16 718 16 17 126 18
2984 18 l2968 0 16 -25z"/>
<path d="M5370 1260 c0 -58 3 -70 16 -70 27 0 93 -42 100 -63 4 -13 -4 -29
-27 -53 l-33 -34 117 0 117 0 0 117 0 117 -28 -27 -28 -27 -24 25 c-33 35
-136 85 -177 85 l-33 0 0 -70z"/>
<path d="M2520 812 l0 -109 52 1 c45 1 54 4 66 26 14 27 10 84 -9 106 -6 8
-27 14 -45 14 -32 0 -34 2 -34 35 0 24 -5 35 -15 35 -12 0 -15 -19 -15 -108z
m91 -6 c22 -48 -13 -103 -47 -75 -14 12 -19 80 -7 92 14 15 44 6 54 -17z"/>
<path d="M1110 800 c0 -60 4 -100 10 -100 6 0 10 40 10 100 0 60 -4 100 -10
100 -6 0 -10 -40 -10 -100z"/>
<path d="M1180 864 c0 -21 4 -33 10 -29 6 3 10 19 10 36 0 16 -4 29 -10 29 -5
0 -10 -16 -10 -36z"/>
<path d="M1880 871 c0 -11 -6 -22 -12 -25 -10 -5 -10 -7 0 -12 7 -3 12 -24 12
-50 0 -55 14 -84 40 -84 23 0 27 15 5 24 -22 8 -20 92 3 106 16 10 16 10 0 20
-10 6 -18 18 -18 25 0 8 -7 15 -15 15 -8 0 -15 -9 -15 -19z"/>
<path d="M2840 871 c0 -11 -6 -22 -12 -25 -10 -5 -10 -7 0 -12 7 -3 12 -24 12
-50 0 -55 14 -84 40 -84 23 0 27 15 5 24 -22 8 -20 92 3 106 16 10 16 10 0 20
-10 6 -18 18 -18 25 0 8 -7 15 -15 15 -8 0 -15 -9 -15 -19z"/>
<path d="M1240 774 c0 -59 3 -74 15 -74 11 0 15 13 15 54 0 56 17 83 45 72 11
-4 15 -21 15 -66 0 -47 3 -60 15 -60 11 0 15 13 15 54 0 56 17 83 45 72 11 -4
15 -21 15 -66 0 -47 3 -60 15 -60 12 0 15 14 15 64 0 39 -5 68 -12 74 -7 5
-55 10 -105 10 l-93 0 0 -74z"/>
<path d="M1560 773 c0 -57 3 -73 15 -73 10 0 15 16 17 63 3 59 4 62 28 62 24
0 25 -3 28 -62 2 -47 7 -63 17 -63 20 0 21 122 2 139 -8 6 -35 10 -60 9 l-47
-2 0 -73z"/>
<path d="M1731 837 c-28 -35 -21 -107 13 -129 21 -15 63 -8 82 13 22 24 25 89
5 113 -16 20 -84 22 -100 3z m79 -26 c15 -29 12 -56 -9 -75 -23 -21 -49 -11
-57 21 -14 55 41 100 66 54z"/>
<path d="M2050 835 c-17 -21 -4 -32 20 -17 27 16 47 15 54 -4 9 -24 9 -24 -27
-24 -32 0 -77 -32 -69 -49 2 -3 8 -14 13 -23 7 -13 22 -17 63 -16 l54 1 -5 61
c-3 34 -6 67 -8 74 -6 17 -80 15 -95 -3z m80 -74 c0 -12 -28 -41 -39 -41 -18
0 -31 26 -19 38 14 14 58 16 58 3z"/>
<path d="M2260 774 c0 -58 3 -74 15 -74 10 0 15 15 17 58 3 48 7 59 26 67 33
15 27 24 -18 23 l-40 0 0 -74z"/>
<path d="M2371 837 c-28 -35 -21 -107 13 -129 21 -15 63 -8 82 13 22 24 25 89
5 113 -16 20 -84 22 -100 3z m79 -26 c15 -29 12 -56 -9 -75 -23 -21 -49 -11
-57 21 -14 55 41 100 66 54z"/>
<path d="M2691 837 c-28 -35 -21 -107 13 -129 21 -15 63 -8 82 13 22 24 25 89
5 113 -16 20 -84 22 -100 3z m79 -26 c15 -29 12 -56 -9 -75 -23 -21 -49 -11
-57 21 -14 55 41 100 66 54z"/>
</g>
</svg>
